STARTFONT 2.1
FONT -Monotype-Gill Sans-Bold-I-Normal--18-180-72-72-P-92-iso8859-1
SIZE 18 72 72
FONTBOUNDINGBOX 22 21 -2 -4

STARTPROPERTIES 22
FOUNDRY "Monotype"
FAMILY_NAME "Gill Sans"
WEIGHT_NAME "Bold"
SLANT "I"
SETWIDTH_NAME "Normal"
ADD_STYLE_NAME ""
PIXEL_SIZE 18
POINT_SIZE 180
RESOLUTION_X 72
RESOLUTION_Y 72
SPACING "P"
AVERAGE_WIDTH 92
CHARSET_REGISTRY "iso8859"
CHARSET_ENCODING "1"
COPYRIGHT "Copyright (c) 1996 Monotype Typography Ltd."
CAP_HEIGHT 15
X_HEIGHT 9
WEIGHT 10
QUAD_WIDTH 12
DEFAULT_CHAR 32
FONT_DESCENT 5
FONT_ASCENT 17
ENDPROPERTIES

CHARS 191

STARTCHAR space
ENCODING 32
SWIDTH 278 0
DWIDTH 6 0
BBX 0 0 0 0
BITMAP
ENDCHAR

STARTCHAR exclam
ENCODING 33
SWIDTH 260 0
DWIDTH 5 0
BBX 5 13 0 0
BITMAP
18
38
38
38
30
70
70
60
60
00
60
E0
C0
ENDCHAR

STARTCHAR quotedbl
ENCODING 34
SWIDTH 479 0
DWIDTH 9 0
BBX 6 4 2 9
BITMAP
CC
CC
CC
CC
ENDCHAR

STARTCHAR numbersign
ENCODING 35
SWIDTH 584 0
DWIDTH 11 0
BBX 11 13 0 0
BITMAP
18C0
18C0
18C0
FFE0
FFE0
3180
3180
3180
FFE0
FFE0
6300
6300
6300
ENDCHAR

STARTCHAR dollar
ENCODING 36
SWIDTH 490 0
DWIDTH 9 0
BBX 9 16 0 -2
BITMAP
0400
1F00
3F00
7580
6580
6800
7800
3C00
0E00
0F00
1300
D700
FE00
7C00
1000
1000
ENDCHAR

STARTCHAR percent
ENCODING 37
SWIDTH 719 0
DWIDTH 14 0
BBX 12 13 1 0
BITMAP
3820
7C60
CCC0
CD80
F900
7300
0600
0CE0
19F0
1330
3330
63E0
C1C0
ENDCHAR

STARTCHAR ampersand
ENCODING 38
SWIDTH 729 0
DWIDTH 14 0
BBX 13 13 0 0
BITMAP
01E0
03F0
0730
0670
07E0
1FC0
7F00
7738
E3B0
E3E0
F1C0
7FF8
3CF0
ENDCHAR

STARTCHAR quoteright
ENCODING 39
SWIDTH 260 0
DWIDTH 5 0
BBX 4 6 1 7
BITMAP
30
70
70
30
60
C0
ENDCHAR

STARTCHAR parenleft
ENCODING 40
SWIDTH 344 0
DWIDTH 7 0
BBX 7 17 1 -4
BITMAP
06
0C
18
30
30
60
60
E0
E0
E0
E0
E0
E0
60
60
30
30
ENDCHAR

STARTCHAR parenright
ENCODING 41
SWIDTH 344 0
DWIDTH 7 0
BBX 7 17 -1 -4
BITMAP
18
18
0C
0C
0E
0E
0E
0E
0E
0E
0C
0C
18
18
30
60
C0
ENDCHAR

STARTCHAR asterisk
ENCODING 42
SWIDTH 479 0
DWIDTH 9 0
BBX 8 7 1 5
BITMAP
18
DB
FF
3C
FF
DB
18
ENDCHAR

STARTCHAR plus
ENCODING 43
SWIDTH 584 0
DWIDTH 11 0
BBX 10 10 1 2
BITMAP
0C00
0C00
0C00
0C00
FFC0
FFC0
0C00
0C00
0C00
0C00
ENDCHAR

STARTCHAR comma
ENCODING 44
SWIDTH 260 0
DWIDTH 5 0
BBX 4 6 -1 -3
BITMAP
30
70
70
30
60
C0
ENDCHAR

STARTCHAR minus
ENCODING 45
SWIDTH 584 0
DWIDTH 11 0
BBX 10 2 1 6
BITMAP
FFC0
FFC0
ENDCHAR

STARTCHAR period
ENCODING 46
SWIDTH 260 0
DWIDTH 5 0
BBX 3 3 0 0
BITMAP
60
E0
C0
ENDCHAR

STARTCHAR slash
ENCODING 47
SWIDTH 281 0
DWIDTH 5 0
BBX 5 13 0 0
BITMAP
18
18
18
30
30
30
30
60
60
60
C0
C0
C0
ENDCHAR

STARTCHAR zero
ENCODING 48
SWIDTH 531 0
DWIDTH 10 0
BBX 9 13 1 0
BITMAP
1E00
3F00
7380
7380
7380
E380
E380
E380
E700
E700
E700
7E00
3C00
ENDCHAR

STARTCHAR one
ENCODING 49
SWIDTH 531 0
DWIDTH 10 0
BBX 5 13 3 0
BITMAP
38
38
38
38
70
70
70
70
70
E0
E0
E0
E0
ENDCHAR

STARTCHAR two
ENCODING 50
SWIDTH 531 0
DWIDTH 10 0
BBX 9 13 1 0
BITMAP
1F00
3F80
3B80
0380
0380
0700
0E00
1C00
3800
7000
E000
FE00
FE00
ENDCHAR

STARTCHAR three
ENCODING 51
SWIDTH 531 0
DWIDTH 10 0
BBX 10 13 0 0
BITMAP
0F80
1FC0
19C0
01C0
01C0
0F80
0F00
0380
0380
0380
E700
FF00
7E00
ENDCHAR

STARTCHAR four
ENCODING 52
SWIDTH 531 0
DWIDTH 10 0
BBX 10 13 0 0
BITMAP
00C0
01C0
03C0
0780
0F80
1B80
3700
6700
FF80
FF80
0E00
0E00
0E00
ENDCHAR

STARTCHAR five
ENCODING 53
SWIDTH 531 0
DWIDTH 10 0
BBX 9 13 0 0
BITMAP
1F80
1F80
1C00
3800
3800
3F00
3F80
0380
0380
0380
E700
FF00
7E00
ENDCHAR

STARTCHAR six
ENCODING 54
SWIDTH 531 0
DWIDTH 10 0
BBX 9 13 1 0
BITMAP
0700
0E00
1C00
3800
7000
7E00
FF00
F780
E380
E380
F700
7F00
3E00
ENDCHAR

STARTCHAR seven
ENCODING 55
SWIDTH 531 0
DWIDTH 10 0
BBX 8 13 2 0
BITMAP
FF
FF
0E
0E
1C
1C
38
38
38
70
70
E0
E0
ENDCHAR

STARTCHAR eight
ENCODING 56
SWIDTH 531 0
DWIDTH 10 0
BBX 9 13 1 0
BITMAP
0F00
1F80
3B80
3B80
3B00
1E00
3E00
7700
E700
E700
EE00
FE00
7C00
ENDCHAR

STARTCHAR nine
ENCODING 57
SWIDTH 531 0
DWIDTH 10 0
BBX 9 13 1 0
BITMAP
3E00
7F00
7780
E380
E380
F780
7F80
3F00
0700
0E00
1C00
3800
7000
ENDCHAR

STARTCHAR colon
ENCODING 58
SWIDTH 260 0
DWIDTH 5 0
BBX 4 9 0 0
BITMAP
30
70
60
00
00
00
60
E0
C0
ENDCHAR

STARTCHAR semicolon
ENCODING 59
SWIDTH 260 0
DWIDTH 5 0
BBX 5 12 -1 -3
BITMAP
18
38
30
00
00
00
30
70
70
30
60
C0
ENDCHAR

STARTCHAR less
ENCODING 60
SWIDTH 584 0
DWIDTH 11 0
BBX 10 10 1 2
BITMAP
00C0
03C0
0F00
3C00
F000
F000
3C00
0F00
03C0
00C0
ENDCHAR

STARTCHAR equal
ENCODING 61
SWIDTH 584 0
DWIDTH 11 0
BBX 10 6 1 4
BITMAP
FFC0
FFC0
0000
0000
FFC0
FFC0
ENDCHAR

STARTCHAR greater
ENCODING 62
SWIDTH 584 0
DWIDTH 11 0
BBX 10 10 1 2
BITMAP
C000
F000
3C00
0F00
03C0
03C0
0F00
3C00
F000
C000
ENDCHAR

STARTCHAR question
ENCODING 63
SWIDTH 323 0
DWIDTH 6 0
BBX 6 13 1 0
BITMAP
78
7C
1C
1C
18
38
70
60
60
00
60
E0
C0
ENDCHAR

STARTCHAR at
ENCODING 64
SWIDTH 979 0
DWIDTH 19 0
BBX 18 17 0 -4
BITMAP
03F800
0FFE00
180700
300180
21DD80
63FCC0
673CC0
C738C0
CE3880
CE7180
4E7300
67FE00
23BC00
3000C0
1C0380
0FFF00
03F800
ENDCHAR

STARTCHAR A
ENCODING 65
SWIDTH 625 0
DWIDTH 12 0
BBX 12 13 0 0
BITMAP
01C0
03C0
03C0
07E0
0EE0
0EE0
1CE0
1CE0
3FF0
7FF0
7070
E070
E070
ENDCHAR

STARTCHAR B
ENCODING 66
SWIDTH 635 0
DWIDTH 12 0
BBX 11 13 0 0
BITMAP
3FC0
3FE0
38E0
38E0
71C0
7F80
7FC0
71E0
70E0
E0E0
E1E0
FFC0
FF80
ENDCHAR

STARTCHAR C
ENCODING 67
SWIDTH 688 0
DWIDTH 13 0
BBX 12 13 1 0
BITMAP
0FF0
3FF0
7800
7000
7000
E000
E000
E000
E000
E0E0
F1E0
7FC0
3F00
ENDCHAR

STARTCHAR D
ENCODING 68
SWIDTH 750 0
DWIDTH 14 0
BBX 13 13 1 0
BITMAP
3F80
3FE0
38F0
3870
7038
7038
7038
7038
7038
E070
E0F0
FFE0
FF80
ENDCHAR

STARTCHAR E
ENCODING 69
SWIDTH 583 0
DWIDTH 11 0
BBX 10 13 1 0
BITMAP
3FC0
3FC0
3800
3800
7000
7F00
7F00
7000
7000
E000
E000
FF80
FF80
ENDCHAR

STARTCHAR F
ENCODING 70
SWIDTH 490 0
DWIDTH 9 0
BBX 9 13 1 0
BITMAP
3F80
3F80
3800
3800
7000
7F00
7F00
7000
7000
E000
E000
E000
E000
ENDCHAR

STARTCHAR G
ENCODING 71
SWIDTH 740 0
DWIDTH 14 0
BBX 12 13 1 0
BITMAP
0FF0
3FF0
7800
7000
7000
E000
E1F0
E1F0
E070
E0E0
F1E0
7FC0
3F00
ENDCHAR

STARTCHAR H
ENCODING 72
SWIDTH 792 0
DWIDTH 15 0
BBX 14 13 1 0
BITMAP
381C
381C
381C
381C
7038
7FF8
7FF8
7038
7038
E070
E070
E070
E070
ENDCHAR

STARTCHAR I
ENCODING 73
SWIDTH 302 0
DWIDTH 6 0
BBX 5 13 1 0
BITMAP
38
38
38
38
70
70
70
70
70
E0
E0
E0
E0
ENDCHAR

STARTCHAR J
ENCODING 74
SWIDTH 302 0
DWIDTH 6 0
BBX 8 17 -2 -4
BITMAP
07
07
07
07
07
0E
0E
0E
0E
0E
1C
1C
1C
1C
38
F8
F0
ENDCHAR

STARTCHAR K
ENCODING 75
SWIDTH 646 0
DWIDTH 12 0
BBX 12 13 1 0
BITMAP
3870
38E0
39C0
3B80
7700
7E00
7E00
7F00
7700
E380
E380
E1C0
E1C0
ENDCHAR

STARTCHAR L
ENCODING 76
SWIDTH 531 0
DWIDTH 10 0
BBX 8 13 1 0
BITMAP
38
38
38
38
70
70
70
70
70
E0
E0
FF
FF
ENDCHAR

STARTCHAR M
ENCODING 77
SWIDTH 948 0
DWIDTH 18 0
BBX 17 13 0 0
BITMAP
0E0380
0E0780
1E0780
1F0F80
1F1F80
3B1B80
3BBB80
3BB380
71F380
71E380
71C380
E0C380
E08380
ENDCHAR

STARTCHAR N
ENCODING 78
SWIDTH 781 0
DWIDTH 15 0
BBX 14 13 1 0
BITMAP
381C
381C
3C1C
3E1C
7E38
7738
7738
73B8
73F8
E1F0
E0F0
E0F0
E070
ENDCHAR

STARTCHAR O
ENCODING 79
SWIDTH 833 0
DWIDTH 16 0
BBX 14 13 1 0
BITMAP
0FE0
3FF8
3838
701C
701C
E01C
E01C
E01C
E038
E038
7070
7FF0
1FC0
ENDCHAR

STARTCHAR P
ENCODING 80
SWIDTH 583 0
DWIDTH 11 0
BBX 10 13 1 0
BITMAP
3F00
3F80
3BC0
39C0
71C0
73C0
7F80
7F00
7000
E000
E000
E000
E000
ENDCHAR

STARTCHAR Q
ENCODING 81
SWIDTH 833 0
DWIDTH 16 0
BBX 14 16 1 -3
BITMAP
0FF0
3FF8
783C
701C
701C
E01C
E01C
E01C
E038
E038
F078
7FF0
3FC0
0700
03F0
01E0
ENDCHAR

STARTCHAR R
ENCODING 82
SWIDTH 646 0
DWIDTH 12 0
BBX 11 13 1 0
BITMAP
3F80
3FC0
39E0
38E0
70E0
71E0
7FC0
7F80
7380
E1C0
E1C0
E0E0
E0E0
ENDCHAR

STARTCHAR S
ENCODING 83
SWIDTH 521 0
DWIDTH 10 0
BBX 10 13 0 0
BITMAP
1F80
3FC0
79C0
7000
7800
3C00
1E00
0F00
0780
0380
E780
FF00
7E00
ENDCHAR

STARTCHAR T
ENCODING 84
SWIDTH 619 0
DWIDTH 12 0
BBX 11 13 2 0
BITMAP
FFE0
FFE0
0E00
0E00
1C00
1C00
1C00
1C00
1C00
3800
3800
3800
3800
ENDCHAR

STARTCHAR U
ENCODING 85
SWIDTH 750 0
DWIDTH 14 0
BBX 13 13 1 0
BITMAP
3838
3838
3838
3838
7070
7070
7070
7070
E0E0
E0E0
F1E0
7FC0
3F80
ENDCHAR

STARTCHAR V
ENCODING 86
SWIDTH 552 0
DWIDTH 10 0
BBX 11 13 1 0
BITMAP
E0E0
E0E0
E1C0
E1C0
7380
7380
7700
7700
3E00
3E00
3C00
1C00
1800
ENDCHAR

STARTCHAR W
ENCODING 87
SWIDTH 948 0
DWIDTH 18 0
BBX 19 13 1 0
BITMAP
E0C0E0
E1C1C0
E1C1C0
E3E380
73E380
777700
777700
767600
3E3E00
3C3C00
3C3C00
181800
181800
ENDCHAR

STARTCHAR X
ENCODING 88
SWIDTH 677 0
DWIDTH 13 0
BBX 15 13 -1 0
BITMAP
1C0E
0E1C
0E38
0770
07E0
03C0
03C0
07C0
0EE0
1CE0
3870
7070
E038
ENDCHAR

STARTCHAR Y
ENCODING 89
SWIDTH 563 0
DWIDTH 11 0
BBX 12 13 1 0
BITMAP
E070
E0E0
71C0
7380
3700
3E00
1C00
1C00
1C00
3800
3800
3800
3800
ENDCHAR

STARTCHAR Z
ENCODING 90
SWIDTH 635 0
DWIDTH 12 0
BBX 13 13 0 0
BITMAP
3FF8
3FF0
00E0
01C0
01C0
0380
0700
0E00
1C00
1C00
3800
7FE0
FFE0
ENDCHAR

STARTCHAR bracketleft
ENCODING 91
SWIDTH 375 0
DWIDTH 7 0
BBX 7 17 1 -4
BITMAP
3E
3E
30
30
30
30
60
60
60
60
60
C0
C0
C0
C0
F8
F8
ENDCHAR

STARTCHAR backslash
ENCODING 92
SWIDTH 281 0
DWIDTH 5 0
BBX 5 13 0 0
BITMAP
C0
C0
C0
60
60
60
60
30
30
30
18
18
18
ENDCHAR

STARTCHAR bracketright
ENCODING 93
SWIDTH 375 0
DWIDTH 7 0
BBX 7 17 -1 -4
BITMAP
3E
3E
06
06
06
06
0C
0C
0C
0C
0C
18
18
18
18
F8
F8
ENDCHAR

STARTCHAR asciicircum
ENCODING 94
SWIDTH 583 0
DWIDTH 11 0
BBX 8 8 2 5
BITMAP
18
18
3C
3C
66
66
C3
C3
ENDCHAR

STARTCHAR underscore
ENCODING 95
SWIDTH 500 0
DWIDTH 10 0
BBX 10 2 0 -3
BITMAP
FFC0
FFC0
ENDCHAR

STARTCHAR quoteleft
ENCODING 96
SWIDTH 260 0
DWIDTH 5 0
BBX 4 6 1 9
BITMAP
30
60
C0
E0
E0
C0
ENDCHAR

STARTCHAR a
ENCODING 97
SWIDTH 552 0
DWIDTH 10 0
BBX 9 9 1 0
BITMAP
1F80
3F80
7380
6380
E380
E700
E700
FF00
7700
ENDCHAR

STARTCHAR b
ENCODING 98
SWIDTH 542 0
DWIDTH 10 0
BBX 9 13 1 0
BITMAP
3800
3800
3800
3800
7700
7F80
7B80
7380
7380
E700
EF00
FE00
F800
ENDCHAR

STARTCHAR c
ENCODING 99
SWIDTH 469 0
DWIDTH 11 0
BBX 10 9 1 0
BITMAP
1F80
3FC0
79C0
7000
E000
E000
F380
7F80
3E00
ENDCHAR

STARTCHAR d
ENCODING 100
SWIDTH 542 0
DWIDTH 10 0
BBX 10 13 1 0
BITMAP
01C0
01C0
01C0
01C0
1F80
7F80
7380
E380
E380
E700
F700
7F00
3F00
ENDCHAR

STARTCHAR e
ENCODING 101
SWIDTH 510 0
DWIDTH 10 0
BBX 9 9 1 0
BITMAP
1F00
3F80
7180
7F80
FF80
E000
E300
FF00
7E00
ENDCHAR

STARTCHAR f
ENCODING 102
SWIDTH 333 0
DWIDTH 6 0
BBX 8 17 1 -4
BITMAP
0F
1F
1C
38
FE
FE
38
38
70
70
70
70
E0
E0
E0
E0
E0
ENDCHAR

STARTCHAR g
ENCODING 103
SWIDTH 490 0
DWIDTH 9 0
BBX 10 13 0 -4
BITMAP
0FC0
1FC0
3B80
3180
3B80
1F00
7C00
7000
3E00
7F00
C300
FE00
7C00
ENDCHAR

STARTCHAR h
ENCODING 104
SWIDTH 552 0
DWIDTH 10 0
BBX 9 13 1 0
BITMAP
3800
3800
3800
3800
7700
7F80
7B80
7380
7380
E700
E700
E700
E700
ENDCHAR

STARTCHAR i
ENCODING 105
SWIDTH 260 0
DWIDTH 5 0
BBX 5 12 1 0
BITMAP
38
38
00
70
70
70
70
70
E0
E0
E0
E0
ENDCHAR

STARTCHAR j
ENCODING 106
SWIDTH 260 0
DWIDTH 5 0
BBX 8 16 -2 -4
BITMAP
07
07
00
0E
0E
0E
0E
1C
1C
1C
1C
1C
38
38
F0
E0
ENDCHAR

STARTCHAR k
ENCODING 107
SWIDTH 509 0
DWIDTH 10 0
BBX 9 13 1 0
BITMAP
3800
3800
3800
3800
7380
7700
7E00
7C00
7C00
EE00
EE00
E700
E700
ENDCHAR

STARTCHAR l
ENCODING 108
SWIDTH 260 0
DWIDTH 5 0
BBX 5 13 1 0
BITMAP
38
38
38
38
70
70
70
70
70
E0
E0
E0
E0
ENDCHAR

STARTCHAR m
ENCODING 109
SWIDTH 823 0
DWIDTH 16 0
BBX 14 9 1 0
BITMAP
7738
7FFC
7BDC
739C
739C
E738
E738
E738
E738
ENDCHAR

STARTCHAR n
ENCODING 110
SWIDTH 552 0
DWIDTH 10 0
BBX 9 9 1 0
BITMAP
7700
7F80
7B80
7380
7380
E700
E700
E700
E700
ENDCHAR

STARTCHAR o
ENCODING 111
SWIDTH 563 0
DWIDTH 11 0
BBX 10 9 1 0
BITMAP
1F00
3F80
7BC0
71C0
E1C0
E380
F780
7F00
3E00
ENDCHAR

STARTCHAR p
ENCODING 112
SWIDTH 583 0
DWIDTH 11 0
BBX 11 15 0 -4
BITMAP
1C00
1C00
1F80
3FC0
78E0
B8E0
38E0
38E0
79C0
7F80
7700
7000
E000
E000
E000
ENDCHAR

STARTCHAR q
ENCODING 113
SWIDTH 552 0
DWIDTH 10 0
BBX 10 13 0 -4
BITMAP
0FC0
3FC0
79C0
71C0
E380
E380
E780
7F80
3B80
0700
0700
0700
0700
ENDCHAR

STARTCHAR r
ENCODING 114
SWIDTH 365 0
DWIDTH 7 0
BBX 7 9 1 0
BITMAP
76
7E
7E
70
70
E0
E0
E0
E0
ENDCHAR

STARTCHAR s
ENCODING 115
SWIDTH 375 0
DWIDTH 7 0
BBX 8 9 0 0
BITMAP
3E
7F
73
38
1C
0E
CE
FE
7C
ENDCHAR

STARTCHAR t
ENCODING 116
SWIDTH 365 0
DWIDTH 7 0
BBX 6 11 1 0
BITMAP
38
38
FC
FC
70
70
E0
E0
E0
F8
78
ENDCHAR

STARTCHAR u
ENCODING 117
SWIDTH 552 0
DWIDTH 10 0
BBX 9 9 1 0
BITMAP
7380
7380
7380
7380
E700
E700
EF00
FF00
7700
ENDCHAR

STARTCHAR v
ENCODING 118
SWIDTH 458 0
DWIDTH 9 0
BBX 9 9 1 0
BITMAP
E380
E380
E700
6600
6E00
7C00
7800
3800
3000
ENDCHAR

STARTCHAR w
ENCODING 119
SWIDTH 729 0
DWIDTH 14 0
BBX 14 9 1 0
BITMAP
E31C
E31C
E718
67B8
6DB0
7DF0
79E0
38E0
30C0
ENDCHAR

STARTCHAR x
ENCODING 120
SWIDTH 531 0
DWIDTH 10 0
BBX 11 9 0 0
BITMAP
70E0
39C0
1F80
0F00
0E00
1F00
3B80
71C0
E0E0
ENDCHAR

STARTCHAR y
ENCODING 121
SWIDTH 490 0
DWIDTH 9 0
BBX 9 13 1 -4
BITMAP
7380
7380
7700
7700
3600
3E00
3C00
1C00
3800
3800
7000
7000
E000
ENDCHAR

STARTCHAR z
ENCODING 122
SWIDTH 458 0
DWIDTH 9 0
BBX 10 9 0 0
BITMAP
3FC0
3F80
0700
0E00
1C00
1C00
3800
7F00
FF00
ENDCHAR

STARTCHAR braceleft
ENCODING 123
SWIDTH 385 0
DWIDTH 7 0
BBX 6 18 1 -4
BITMAP
0C
18
30
30
30
30
30
60
C0
60
30
30
30
30
30
30
18
0C
ENDCHAR

STARTCHAR bar
ENCODING 124
SWIDTH 281 0
DWIDTH 5 0
BBX 2 17 2 -4
BITMAP
C0
C0
C0
C0
C0
C0
C0
C0
C0
C0
C0
C0
C0
C0
C0
C0
C0
ENDCHAR

STARTCHAR braceright
ENCODING 125
SWIDTH 385 0
DWIDTH 7 0
BBX 6 18 1 -4
BITMAP
C0
60
30
30
30
30
30
18
0C
18
30
30
30
30
30
30
60
C0
ENDCHAR

STARTCHAR asciitilde
ENCODING 126
SWIDTH 584 0
DWIDTH 11 0
BBX 10 3 1 4
BITMAP
7840
FFC0
8780
ENDCHAR

STARTCHAR space
ENCODING 160
SWIDTH 278 0
DWIDTH 5 0
BBX 0 0 0 0
BITMAP
ENDCHAR

STARTCHAR exclamdown
ENCODING 161
SWIDTH 260 0
DWIDTH 5 0
BBX 5 13 0 -4
BITMAP
18
38
30
00
30
30
70
70
60
E0
E0
E0
C0
ENDCHAR

STARTCHAR cent
ENCODING 162
SWIDTH 469 0
DWIDTH 9 0
BBX 9 15 0 -3
BITMAP
0100
0100
0200
1F00
3F80
7780
7400
E400
E800
EF00
FF00
7C00
1000
2000
2000
ENDCHAR

STARTCHAR sterling
ENCODING 163
SWIDTH 542 0
DWIDTH 10 0
BBX 9 13 1 0
BITMAP
0780
0F80
1C00
1C00
3800
3800
FC00
FC00
7000
7000
7000
FF80
FF80
ENDCHAR

STARTCHAR currency
ENCODING 164
SWIDTH 552 0
DWIDTH 10 0
BBX 8 8 1 2
BITMAP
DB
FF
66
C3
C3
66
FF
DB
ENDCHAR

STARTCHAR yen
ENCODING 165
SWIDTH 552 0
DWIDTH 10 0
BBX 12 14 1 0
BITMAP
E070
E0E0
71C0
7380
3700
3E00
FF80
FF80
1800
FF80
FF80
3800
3800
3800
ENDCHAR

STARTCHAR brokenbar
ENCODING 166
SWIDTH 281 0
DWIDTH 5 0
BBX 2 17 2 -4
BITMAP
C0
C0
C0
C0
C0
C0
C0
00
00
00
C0
C0
C0
C0
C0
C0
C0
ENDCHAR

STARTCHAR section
ENCODING 167
SWIDTH 552 0
DWIDTH 10 0
BBX 8 17 1 -4
BITMAP
1E
3F
33
30
38
7C
EE
C7
C3
E3
77
3E
1C
0C
CC
FC
78
ENDCHAR

STARTCHAR dieresis
ENCODING 168
SWIDTH 333 0
DWIDTH 6 0
BBX 6 2 1 10
BITMAP
CC
CC
ENDCHAR

STARTCHAR copyright
ENCODING 169
SWIDTH 740 0
DWIDTH 14 0
BBX 14 14 1 0
BITMAP
0FC0
3870
6018
4788
CFCC
8CC4
8C04
8C04
8CC4
CFCC
4788
6018
3870
0FC0
ENDCHAR

STARTCHAR ordfeminine
ENCODING 170
SWIDTH 365 0
DWIDTH 7 0
BBX 6 6 1 7
BITMAP
1C
3C
6C
D8
F8
D8
ENDCHAR

STARTCHAR guillemotleft
ENCODING 171
SWIDTH 542 0
DWIDTH 10 0
BBX 10 9 0 0
BITMAP
0CC0
1980
3300
6600
CC00
CC00
6600
3300
1180
ENDCHAR

STARTCHAR logicalnot
ENCODING 172
SWIDTH 584 0
DWIDTH 11 0
BBX 9 6 1 3
BITMAP
FF80
FF80
0180
0180
0180
0180
ENDCHAR

STARTCHAR hyphen
ENCODING 173
SWIDTH 344 0
DWIDTH 7 0
BBX 6 2 1 3
BITMAP
FC
FC
ENDCHAR

STARTCHAR registered
ENCODING 174
SWIDTH 740 0
DWIDTH 14 0
BBX 14 14 1 0
BITMAP
0FC0
3870
6018
4F88
CFCC
8CC4
8CC4
8F84
8F84
CDCC
4CE8
6018
3870
0FC0
ENDCHAR

STARTCHAR macron
ENCODING 175
SWIDTH 333 0
DWIDTH 6 0
BBX 7 2 1 10
BITMAP
FE
FE
ENDCHAR

STARTCHAR degree
ENCODING 176
SWIDTH 396 0
DWIDTH 8 0
BBX 6 6 2 8
BITMAP
30
78
CC
CC
78
30
ENDCHAR

STARTCHAR plusminus
ENCODING 177
SWIDTH 584 0
DWIDTH 11 0
BBX 10 13 1 0
BITMAP
0C00
0C00
0C00
0C00
FFC0
FFC0
0C00
0C00
0C00
0C00
0000
FFC0
FFC0
ENDCHAR

STARTCHAR twosuperior
ENCODING 178
SWIDTH 323 0
DWIDTH 6 0
BBX 6 7 0 6
BITMAP
1C
3C
0C
18
30
78
F8
ENDCHAR

STARTCHAR threesuperior
ENCODING 179
SWIDTH 323 0
DWIDTH 6 0
BBX 6 7 0 6
BITMAP
3C
0C
18
30
18
D8
70
ENDCHAR

STARTCHAR acute
ENCODING 180
SWIDTH 333 0
DWIDTH 6 0
BBX 4 3 2 9
BITMAP
70
60
C0
ENDCHAR

STARTCHAR mu
ENCODING 181
SWIDTH 615 0
DWIDTH 12 0
BBX 11 12 1 -3
BITMAP
38E0
38E0
38E0
38E0
71C0
71C0
73C0
7FC0
6DC0
E000
E000
E000
ENDCHAR

STARTCHAR paragraph
ENCODING 182
SWIDTH 552 0
DWIDTH 10 0
BBX 11 17 0 -4
BITMAP
3FE0
7FE0
FCC0
FCC0
FCC0
FCC0
7CC0
0CC0
0CC0
0CC0
0CC0
0CC0
0CC0
0CC0
0CC0
0CC0
0CC0
ENDCHAR

STARTCHAR periodcentered
ENCODING 183
SWIDTH 260 0
DWIDTH 5 0
BBX 3 3 1 5
BITMAP
E0
E0
E0
ENDCHAR

STARTCHAR cedilla
ENCODING 184
SWIDTH 333 0
DWIDTH 6 0
BBX 5 4 0 -4
BITMAP
30
38
18
F0
ENDCHAR

STARTCHAR onesuperior
ENCODING 185
SWIDTH 323 0
DWIDTH 6 0
BBX 3 7 2 6
BITMAP
60
60
60
60
C0
C0
C0
ENDCHAR

STARTCHAR ordmasculine
ENCODING 186
SWIDTH 375 0
DWIDTH 7 0
BBX 6 7 1 6
BITMAP
38
7C
6C
CC
D8
F8
70
ENDCHAR

STARTCHAR guillemotright
ENCODING 187
SWIDTH 542 0
DWIDTH 10 0
BBX 10 9 0 0
BITMAP
6600
3300
1980
0CC0
0CC0
1980
3300
6600
CC00
ENDCHAR

STARTCHAR onequarter
ENCODING 188
SWIDTH 844 0
DWIDTH 16 0
BBX 12 13 2 0
BITMAP
6060
60C0
6180
6180
C300
C600
CC30
0C70
18E0
3160
33F0
60C0
C0C0
ENDCHAR

STARTCHAR onehalf
ENCODING 189
SWIDTH 844 0
DWIDTH 16 0
BBX 12 13 2 0
BITMAP
6040
60C0
6180
6300
C200
C600
CC60
18F0
1030
3060
60C0
C1E0
83E0
ENDCHAR

STARTCHAR threequarters
ENCODING 190
SWIDTH 844 0
DWIDTH 16 0
BBX 13 13 1 0
BITMAP
3C10
0C30
1860
30C0
1880
D980
7318
0238
0670
0CB0
19F8
1060
3060
ENDCHAR

STARTCHAR questiondown
ENCODING 191
SWIDTH 323 0
DWIDTH 6 0
BBX 6 13 0 -4
BITMAP
0C
1C
18
00
18
18
38
70
60
E0
E0
F8
78
ENDCHAR

STARTCHAR Agrave
ENCODING 192
SWIDTH 625 0
DWIDTH 12 0
BBX 12 17 0 0
BITMAP
0380
0180
00C0
0000
01C0
03C0
03C0
07E0
0EE0
0EE0
1CE0
1CE0
3FF0
7FF0
7070
E070
E070
ENDCHAR

STARTCHAR Aacute
ENCODING 193
SWIDTH 625 0
DWIDTH 12 0
BBX 12 17 0 0
BITMAP
00E0
00C0
0180
0000
01C0
03C0
03C0
07E0
0EE0
0EE0
1CE0
1CE0
3FF0
7FF0
7070
E070
E070
ENDCHAR

STARTCHAR Acircumflex
ENCODING 194
SWIDTH 625 0
DWIDTH 12 0
BBX 12 17 0 0
BITMAP
00C0
01C0
0360
0000
01C0
03C0
03C0
07E0
0EE0
0EE0
1CE0
1CE0
3FF0
7FF0
7070
E070
E070
ENDCHAR

STARTCHAR Atilde
ENCODING 195
SWIDTH 625 0
DWIDTH 12 0
BBX 12 17 0 0
BITMAP
0190
03E0
04C0
0000
01C0
03C0
03C0
07E0
0EE0
0EE0
1CE0
1CE0
3FF0
7FF0
7070
E070
E070
ENDCHAR

STARTCHAR Adieresis
ENCODING 196
SWIDTH 625 0
DWIDTH 12 0
BBX 12 16 0 0
BITMAP
0360
0360
0000
01C0
03C0
03C0
07E0
0EE0
0EE0
1CE0
1CE0
3FF0
7FF0
7070
E070
E070
ENDCHAR

STARTCHAR Aring
ENCODING 197
SWIDTH 625 0
DWIDTH 12 0
BBX 12 17 0 0
BITMAP
00C0
0120
0120
00C0
01C0
03C0
03C0
07E0
0EE0
0EE0
1CE0
1CE0
3FF0
7FF0
7070
E070
E070
ENDCHAR

STARTCHAR AE
ENCODING 198
SWIDTH 990 0
DWIDTH 19 0
BBX 18 13 1 0
BITMAP
01FFC0
01FFC0
03B800
03B800
077000
0E7F00
0E7F00
1C7000
1FF000
3FE000
70E000
70FF80
E0FF80
ENDCHAR

STARTCHAR Ccedilla
ENCODING 199
SWIDTH 688 0
DWIDTH 13 0
BBX 12 17 1 -4
BITMAP
0FF0
3FF0
7800
7000
7000
E000
E000
E000
E000
E0E0
F1E0
7FC0
3F00
0C00
0E00
0600
3C00
ENDCHAR

STARTCHAR Egrave
ENCODING 200
SWIDTH 583 0
DWIDTH 11 0
BBX 10 17 1 0
BITMAP
0E00
0600
0300
0000
3FC0
3FC0
3800
3800
7000
7F00
7F00
7000
7000
E000
E000
FF80
FF80
ENDCHAR

STARTCHAR Eacute
ENCODING 201
SWIDTH 583 0
DWIDTH 11 0
BBX 10 17 1 0
BITMAP
0380
0300
0600
0000
3FC0
3FC0
3800
3800
7000
7F00
7F00
7000
7000
E000
E000
FF80
FF80
ENDCHAR

STARTCHAR Ecircumflex
ENCODING 202
SWIDTH 583 0
DWIDTH 11 0
BBX 10 17 1 0
BITMAP
0300
0700
0D80
0000
3FC0
3FC0
3800
3800
7000
7F00
7F00
7000
7000
E000
E000
FF80
FF80
ENDCHAR

STARTCHAR Edieresis
ENCODING 203
SWIDTH 583 0
DWIDTH 11 0
BBX 10 16 1 0
BITMAP
1980
1980
0000
3FC0
3FC0
3800
3800
7000
7F00
7F00
7000
7000
E000
E000
FF80
FF80
ENDCHAR

STARTCHAR Igrave
ENCODING 204
SWIDTH 302 0
DWIDTH 6 0
BBX 5 17 1 0
BITMAP
70
30
18
00
38
38
38
38
70
70
70
70
70
E0
E0
E0
E0
ENDCHAR

STARTCHAR Iacute
ENCODING 205
SWIDTH 302 0
DWIDTH 6 0
BBX 6 17 1 0
BITMAP
1C
18
30
00
38
38
38
38
70
70
70
70
70
E0
E0
E0
E0
ENDCHAR

STARTCHAR Icircumflex
ENCODING 206
SWIDTH 302 0
DWIDTH 6 0
BBX 7 17 1 0
BITMAP
0C
1C
36
00
38
38
38
38
70
70
70
70
70
E0
E0
E0
E0
ENDCHAR

STARTCHAR Idieresis
ENCODING 207
SWIDTH 302 0
DWIDTH 6 0
BBX 6 16 1 0
BITMAP
6C
6C
00
38
38
38
38
70
70
70
70
70
E0
E0
E0
E0
ENDCHAR

STARTCHAR Eth
ENCODING 208
SWIDTH 750 0
DWIDTH 14 0
BBX 13 13 1 0
BITMAP
3F80
3FE0
38F0
3870
7038
7038
FE38
FE38
7038
E070
E0F0
FFE0
FF80
ENDCHAR

STARTCHAR Ntilde
ENCODING 209
SWIDTH 781 0
DWIDTH 15 0
BBX 14 17 1 0
BITMAP
0190
03E0
04C0
0000
381C
381C
3C1C
3E1C
7E38
7738
7738
73B8
73F8
E1F0
E0F0
E0F0
E070
ENDCHAR

STARTCHAR Ograve
ENCODING 210
SWIDTH 833 0
DWIDTH 16 0
BBX 14 17 1 0
BITMAP
0700
0300
0180
0000
0FE0
3FF8
3838
701C
701C
E01C
E01C
E01C
E038
E038
7070
7FF0
1FC0
ENDCHAR

STARTCHAR Oacute
ENCODING 211
SWIDTH 833 0
DWIDTH 16 0
BBX 14 17 1 0
BITMAP
00E0
00C0
0180
0000
0FE0
3FF8
3838
701C
701C
E01C
E01C
E01C
E038
E038
7070
7FF0
1FC0
ENDCHAR

STARTCHAR Ocircumflex
ENCODING 212
SWIDTH 833 0
DWIDTH 16 0
BBX 14 17 1 0
BITMAP
0180
0380
06C0
0000
0FE0
3FF8
3838
701C
701C
E01C
E01C
E01C
E038
E038
7070
7FF0
1FC0
ENDCHAR

STARTCHAR Otilde
ENCODING 213
SWIDTH 833 0
DWIDTH 16 0
BBX 14 17 1 0
BITMAP
0190
03E0
04C0
0000
0FE0
3FF8
3838
701C
701C
E01C
E01C
E01C
E038
E038
7070
7FF0
1FC0
ENDCHAR

STARTCHAR Odieresis
ENCODING 214
SWIDTH 833 0
DWIDTH 16 0
BBX 14 16 1 0
BITMAP
0660
0660
0000
0FE0
3FF8
3838
701C
701C
E01C
E01C
E01C
E038
E038
7070
7FF0
1FC0
ENDCHAR

STARTCHAR multiply
ENCODING 215
SWIDTH 584 0
DWIDTH 11 0
BBX 10 9 1 2
BITMAP
60C0
3180
1B00
0E00
0C00
1E00
3300
6180
C0C0
ENDCHAR

STARTCHAR Oslash
ENCODING 216
SWIDTH 833 0
DWIDTH 16 0
BBX 14 13 1 0
BITMAP
0FEC
3FF8
3838
707C
70DC
E19C
E31C
E61C
EC38
F838
7070
7FF0
DFC0
ENDCHAR

STARTCHAR Ugrave
ENCODING 217
SWIDTH 750 0
DWIDTH 14 0
BBX 13 17 1 0
BITMAP
0380
0180
00C0
0000
3838
3838
3838
3838
7070
7070
7070
7070
E0E0
E0E0
F1E0
7FC0
3F80
ENDCHAR

STARTCHAR Uacute
ENCODING 218
SWIDTH 750 0
DWIDTH 14 0
BBX 13 17 1 0
BITMAP
00E0
00C0
0180
0000
3838
3838
3838
3838
7070
7070
7070
7070
E0E0
E0E0
F1E0
7FC0
3F80
ENDCHAR

STARTCHAR Ucircumflex
ENCODING 219
SWIDTH 750 0
DWIDTH 14 0
BBX 13 17 1 0
BITMAP
00C0
01C0
0360
0000
3838
3838
3838
3838
7070
7070
7070
7070
E0E0
E0E0
F1E0
7FC0
3F80
ENDCHAR

STARTCHAR Udieresis
ENCODING 220
SWIDTH 750 0
DWIDTH 14 0
BBX 13 16 1 0
BITMAP
0660
0660
0000
3838
3838
3838
3838
7070
7070
7070
7070
E0E0
E0E0
F1E0
7FC0
3F80
ENDCHAR

STARTCHAR Yacute
ENCODING 221
SWIDTH 563 0
DWIDTH 11 0
BBX 12 17 1 0
BITMAP
0380
0300
0600
0000
E070
E0E0
71C0
7380
3700
3E00
1C00
1C00
1C00
3800
3800
3800
3800
ENDCHAR

STARTCHAR Thorn
ENCODING 222
SWIDTH 583 0
DWIDTH 11 0
BBX 10 13 1 0
BITMAP
3800
3800
3800
3F00
7F80
73C0
71C0
71C0
73C0
FF80
FE00
E000
E000
ENDCHAR

STARTCHAR germandbls
ENCODING 223
SWIDTH 552 0
DWIDTH 10 0
BBX 9 13 1 0
BITMAP
1F00
3F80
3980
3980
7380
7700
7700
7380
7380
E380
E380
EF00
EE00
ENDCHAR

STARTCHAR agrave
ENCODING 224
SWIDTH 552 0
DWIDTH 10 0
BBX 9 13 1 0
BITMAP
0E00
0600
0300
0000
1F80
3F80
7380
6380
E380
E700
E700
FF00
7700
ENDCHAR

STARTCHAR aacute
ENCODING 225
SWIDTH 552 0
DWIDTH 10 0
BBX 9 13 1 0
BITMAP
0380
0300
0600
0000
1F80
3F80
7380
6380
E380
E700
E700
FF00
7700
ENDCHAR

STARTCHAR acircumflex
ENCODING 226
SWIDTH 552 0
DWIDTH 10 0
BBX 9 13 1 0
BITMAP
0300
0700
0D80
0000
1F80
3F80
7380
6380
E380
E700
E700
FF00
7700
ENDCHAR

STARTCHAR atilde
ENCODING 227
SWIDTH 552 0
DWIDTH 10 0
BBX 10 13 1 0
BITMAP
0640
0F80
1300
0000
1F80
3F80
7380
6380
E380
E700
E700
FF00
7700
ENDCHAR

STARTCHAR adieresis
ENCODING 228
SWIDTH 552 0
DWIDTH 10 0
BBX 9 12 1 0
BITMAP
1980
1980
0000
1F80
3F80
7380
6380
E380
E700
E700
FF00
7700
ENDCHAR

STARTCHAR aring
ENCODING 229
SWIDTH 552 0
DWIDTH 10 0
BBX 9 14 1 0
BITMAP
0600
0900
0900
0600
0000
1F80
3F80
7380
6380
E380
E700
E700
FF00
7700
ENDCHAR

STARTCHAR ae
ENCODING 230
SWIDTH 688 0
DWIDTH 13 0
BBX 13 9 0 0
BITMAP
3EF0
3FF8
0718
0FF8
3FF8
7600
E630
FFF0
7BE0
ENDCHAR

STARTCHAR ccedilla
ENCODING 231
SWIDTH 469 0
DWIDTH 11 0
BBX 10 13 1 -4
BITMAP
1F80
3FC0
79C0
7000
E000
E000
F380
7F80
3E00
1800
1C00
0C00
3800
ENDCHAR

STARTCHAR egrave
ENCODING 232
SWIDTH 510 0
DWIDTH 10 0
BBX 9 13 1 0
BITMAP
1C00
0C00
0600
0000
1F00
3F80
7180
7F80
FF80
E000
E300
FF00
7E00
ENDCHAR

STARTCHAR eacute
ENCODING 233
SWIDTH 510 0
DWIDTH 10 0
BBX 9 13 1 0
BITMAP
0380
0300
0600
0000
1F00
3F80
7180
7F80
FF80
E000
E300
FF00
7E00
ENDCHAR

STARTCHAR ecircumflex
ENCODING 234
SWIDTH 510 0
DWIDTH 10 0
BBX 9 13 1 0
BITMAP
0300
0700
0D80
0000
1F00
3F80
7180
7F80
FF80
E000
E300
FF00
7E00
ENDCHAR

STARTCHAR edieresis
ENCODING 235
SWIDTH 510 0
DWIDTH 10 0
BBX 9 12 1 0
BITMAP
0D80
0D80
0000
1F00
3F80
7180
7F80
FF80
E000
E300
FF00
7E00
ENDCHAR

STARTCHAR igrave
ENCODING 236
SWIDTH 260 0
DWIDTH 5 0
BBX 4 13 1 0
BITMAP
E0
60
30
00
70
70
70
70
70
E0
E0
E0
E0
ENDCHAR

STARTCHAR iacute
ENCODING 237
SWIDTH 260 0
DWIDTH 5 0
BBX 6 13 1 0
BITMAP
1C
18
30
00
70
70
70
70
70
E0
E0
E0
E0
ENDCHAR

STARTCHAR icircumflex
ENCODING 238
SWIDTH 260 0
DWIDTH 5 0
BBX 6 13 1 0
BITMAP
18
38
6C
00
70
70
70
70
70
E0
E0
E0
E0
ENDCHAR

STARTCHAR idieresis
ENCODING 239
SWIDTH 260 0
DWIDTH 5 0
BBX 5 12 1 0
BITMAP
D8
D8
00
70
70
70
70
70
E0
E0
E0
E0
ENDCHAR

STARTCHAR eth
ENCODING 240
SWIDTH 552 0
DWIDTH 10 0
BBX 10 14 0 0
BITMAP
0CC0
0780
0F00
1B00
0180
1F80
3FC0
7BC0
71C0
E1C0
E380
F780
7F00
3E00
ENDCHAR

STARTCHAR ntilde
ENCODING 241
SWIDTH 552 0
DWIDTH 10 0
BBX 10 13 1 0
BITMAP
0640
0F80
1300
0000
7700
7F80
7B80
7380
7380
E700
E700
E700
E700
ENDCHAR

STARTCHAR ograve
ENCODING 242
SWIDTH 563 0
DWIDTH 11 0
BBX 10 13 1 0
BITMAP
0E00
0600
0300
0000
1F00
3F80
7BC0
71C0
E1C0
E380
F780
7F00
3E00
ENDCHAR

STARTCHAR oacute
ENCODING 243
SWIDTH 563 0
DWIDTH 11 0
BBX 10 13 1 0
BITMAP
0380
0300
0600
0000
1F00
3F80
7BC0
71C0
E1C0
E380
F780
7F00
3E00
ENDCHAR

STARTCHAR ocircumflex
ENCODING 244
SWIDTH 563 0
DWIDTH 11 0
BBX 10 13 1 0
BITMAP
0300
0700
0D80
0000
1F00
3F80
7BC0
71C0
E1C0
E380
F780
7F00
3E00
ENDCHAR

STARTCHAR otilde
ENCODING 245
SWIDTH 563 0
DWIDTH 11 0
BBX 10 13 1 0
BITMAP
0640
0F80
1300
0000
1F00
3F80
7BC0
71C0
E1C0
E380
F780
7F00
3E00
ENDCHAR

STARTCHAR odieresis
ENCODING 246
SWIDTH 563 0
DWIDTH 11 0
BBX 10 12 1 0
BITMAP
1980
1980
0000
1F00
3F80
7BC0
71C0
E1C0
E380
F780
7F00
3E00
ENDCHAR

STARTCHAR divide
ENCODING 247
SWIDTH 584 0
DWIDTH 11 0
BBX 8 10 2 2
BITMAP
18
18
00
00
FF
FF
00
00
18
18
ENDCHAR

STARTCHAR oslash
ENCODING 248
SWIDTH 563 0
DWIDTH 11 0
BBX 10 9 1 0
BITMAP
1F40
3F80
7BC0
77C0
EDC0
FB80
F780
7F00
BE00
ENDCHAR

STARTCHAR ugrave
ENCODING 249
SWIDTH 552 0
DWIDTH 10 0
BBX 9 13 1 0
BITMAP
1C00
0C00
0600
0000
7380
7380
7380
7380
E700
E700
EF00
FF00
7700
ENDCHAR

STARTCHAR uacute
ENCODING 250
SWIDTH 552 0
DWIDTH 10 0
BBX 9 13 1 0
BITMAP
0700
0600
0C00
0000
7380
7380
7380
7380
E700
E700
EF00
FF00
7700
ENDCHAR

STARTCHAR ucircumflex
ENCODING 251
SWIDTH 552 0
DWIDTH 10 0
BBX 9 13 1 0
BITMAP
0600
0E00
1B00
0000
7380
7380
7380
7380
E700
E700
EF00
FF00
7700
ENDCHAR

STARTCHAR udieresis
ENCODING 252
SWIDTH 552 0
DWIDTH 10 0
BBX 9 12 1 0
BITMAP
1B00
1B00
0000
7380
7380
7380
7380
E700
E700
EF00
FF00
7700
ENDCHAR

STARTCHAR yacute
ENCODING 253
SWIDTH 490 0
DWIDTH 9 0
BBX 9 17 0 -4
BITMAP
0700
0600
0C00
0000
7380
7380
7700
3700
3600
3E00
3C00
1C00
3800
3800
7000
7000
E000
ENDCHAR

STARTCHAR thorn
ENCODING 254
SWIDTH 583 0
DWIDTH 11 0
BBX 10 17 1 -4
BITMAP
3800
3800
3800
3800
3F00
3F80
79C0
71C0
71C0
71C0
7380
FF80
FF00
E000
E000
E000
E000
ENDCHAR

STARTCHAR ydieresis
ENCODING 255
SWIDTH 490 0
DWIDTH 9 0
BBX 9 16 0 -4
BITMAP
3300
3300
0000
7380
7380
7700
3700
3600
3E00
3C00
1C00
3800
3800
7000
7000
E000
ENDCHAR
ENDFONT
